HIERARCHY
ROOT hip
{
  OFFSET 0 0 0
  CHANNELS 6 Xposition Yposition Zposition Zrotation Yrotation Xrotation
  JOINT abdomen
  {
    OFFSET 0 20.6881 -0.73152
    CHANNELS 3 Zrotation Xrotation Yrotation
    JOINT chest
    {
      OFFSET 0 11.7043 -0.48768
      CHANNELS 3 Zrotation Xrotation Yrotation
      JOINT neck
      {
        OFFSET 0 22.1894 -2.19456
        CHANNELS 3 Zrotation Xrotation Yrotation
        JOINT head
        {
          OFFSET -0.24384 7.07133 1.2192
          CHANNELS 3 Zrotation Xrotation Yrotation
          JOINT leftEye
          {
            OFFSET 4.14528 8.04674 8.04672
            CHANNELS 3 Zrotation Xrotation Yrotation
            End Site
            {
              OFFSET 1 0 0
            }
          }
          JOINT rightEye
          {
            OFFSET -3.6576 8.04674 8.04672
            CHANNELS 3 Zrotation Xrotation Yrotation
            End Site
            {
              OFFSET 1 0 0
            }
          }
        }
      }
      JOINT rCollar
      {
        OFFSET -2.68224 19.2634 -4.8768
        CHANNELS 3 Zrotation Xrotation Yrotation
        JOINT rShldr
        {
          OFFSET -8.77824 -1.95073 1.46304
          CHANNELS 3 Zrotation Xrotation Yrotation
          JOINT rForeArm
          {
            OFFSET -28.1742 -1.7115 0.48768
            CHANNELS 3 Zrotation Xrotation Yrotation
            JOINT rHand
            {
              OFFSET -22.5879 0.773209 7.07136
              CHANNELS 3 Zrotation Xrotation Yrotation
              JOINT rThumb1
              {
                OFFSET -1.2192 -0.487915 3.41376
                CHANNELS 3 Zrotation Xrotation Yrotation
                JOINT rThumb2
                {
                  OFFSET -3.37035 -0.52449 3.41376
                  CHANNELS 3 Zrotation Xrotation Yrotation
                  End Site
                  {
                    OFFSET -1.78271 -1.18214 1.43049
                  }
                }
              }
              JOINT rIndex1
              {
                OFFSET -7.75947 0.938293 5.60832
                CHANNELS 3 Zrotation Xrotation Yrotation
                JOINT rIndex2
                {
                  OFFSET -2.54057 -0.884171 1.56538
                  CHANNELS 3 Zrotation Xrotation Yrotation
                  End Site
                  {
                    OFFSET -1.62519 -0.234802 1.16502
                  }
                }
              }
              JOINT rMid1
              {
                OFFSET -8.24714 1.18213 3.41376
                CHANNELS 3 Zrotation Xrotation Yrotation
                JOINT rMid2
                {
                  OFFSET -3.10165 -0.590103 1.0647
                  CHANNELS 3 Zrotation Xrotation Yrotation
                  End Site
                  {
                    OFFSET -2.48547 -0.328903 0.83742
                  }
                }
              }
              JOINT rRing1
              {
                OFFSET -8.82822 0.546677 1.51678
                CHANNELS 3 Zrotation Xrotation Yrotation
                JOINT rRing2
                {
                  OFFSET -2.60934 -0.819778 -0.0198488
                  CHANNELS 3 Zrotation Xrotation Yrotation
                  End Site
                  {
                    OFFSET -2.33842 -0.294052 0.168128
                  }
                }
              }
              JOINT rPinky1
              {
                OFFSET -8.27202 -0.0477905 -0.4584
                CHANNELS 3 Zrotation Xrotation Yrotation
                JOINT rPinky2
                {
                  OFFSET -1.82734 -0.647385 -0.700984
                  CHANNELS 3 Zrotation Xrotation Yrotation
                  End Site
                  {
                    OFFSET -1.69225 -0.51767 -0.607171
                  }
                }
              }
            }
          }
        }
      }
      JOINT lCollar
      {
        OFFSET 2.68224 19.2634 -4.8768
        CHANNELS 3 Zrotation Xrotation Yrotation
        JOINT lShldr
        {
          OFFSET 8.77824 -1.95073 1.46304
          CHANNELS 3 Zrotation Xrotation Yrotation
          JOINT lForeArm
          {
            OFFSET 28.1742 -1.7115 0.48768
            CHANNELS 3 Zrotation Xrotation Yrotation
            JOINT lHand
            {
              OFFSET 22.5879 0.773209 7.07136
              CHANNELS 3 Zrotation Xrotation Yrotation
              JOINT lThumb1
              {
                OFFSET 1.2192 -0.487915 3.41376
                CHANNELS 3 Zrotation Xrotation Yrotation
                JOINT lThumb2
                {
                  OFFSET 3.37035 -0.52449 3.41376
                  CHANNELS 3 Zrotation Xrotation Yrotation
                  End Site
                  {
                    OFFSET 1.78271 -1.18214 1.43049
                  }
                }
              }
              JOINT lIndex1
              {
                OFFSET 7.75947 0.938293 5.60832
                CHANNELS 3 Zrotation Xrotation Yrotation
                JOINT lIndex2
                {
                  OFFSET 2.54057 -0.884171 1.56538
                  CHANNELS 3 Zrotation Xrotation Yrotation
                  End Site
                  {
                    OFFSET 1.62519 -0.234802 1.16502
                  }
                }
              }
              JOINT lMid1
              {
                OFFSET 8.24714 1.18213 3.41376
                CHANNELS 3 Zrotation Xrotation Yrotation
                JOINT lMid2
                {
                  OFFSET 3.10165 -0.590103 1.0647
                  CHANNELS 3 Zrotation Xrotation Yrotation
                  End Site
                  {
                    OFFSET 2.48547 -0.328903 0.83742
                  }
                }
              }
              JOINT lRing1
              {
                OFFSET 8.82822 0.546677 1.51678
                CHANNELS 3 Zrotation Xrotation Yrotation
                JOINT lRing2
                {
                  OFFSET 2.60934 -0.819778 -0.0198488
                  CHANNELS 3 Zrotation Xrotation Yrotation
                  End Site
                  {
                    OFFSET 2.33842 -0.294052 0.168128
                  }
                }
              }
              JOINT lPinky1
              {
                OFFSET 8.27202 -0.0477905 -0.4584
                CHANNELS 3 Zrotation Xrotation Yrotation
                JOINT lPinky2
                {
                  OFFSET 1.82734 -0.647385 -0.700984
                  CHANNELS 3 Zrotation Xrotation Yrotation
                  End Site
                  {
                    OFFSET 1.69225 -0.51767 -0.607171
                  }
                }
              }
            }
          }
        }
      }
    }
  }
  JOINT rButtock
  {
    OFFSET -8.77824 4.35084 1.2192
    CHANNELS 3 Zrotation Xrotation Yrotation
    JOINT rThigh
    {
      OFFSET 0 -1.70687 -2.19456
      CHANNELS 3 Zrotation Xrotation Yrotation
      JOINT rShin
      {
        OFFSET 0 -36.8199 0.73152
        CHANNELS 3 Zrotation Xrotation Yrotation
        JOINT rFoot
        {
          OFFSET 0.73152 -45.1104 -5.12064
          CHANNELS 3 Zrotation Xrotation Yrotation
          End Site
          {
            OFFSET -1.1221 -3.69964 12.103
          }
        }
      }
    }
  }
  JOINT lButtock
  {
    OFFSET 8.77824 4.35084 1.2192
    CHANNELS 3 Zrotation Xrotation Yrotation
    JOINT lThigh
    {
      OFFSET 0 -1.70687 -2.19456
      CHANNELS 3 Zrotation Xrotation Yrotation
      JOINT lShin
      {
        OFFSET 0 -36.8199 0.73152
        CHANNELS 3 Zrotation Xrotation Yrotation
        JOINT lFoot
        {
          OFFSET -0.73152 -45.1104 -5.12064
          CHANNELS 3 Zrotation Xrotation Yrotation
          End Site
          {
            OFFSET 1.1221 -3.69964 12.103
          }
        }
      }
    }
  }
}
MOTION
Frames:	4
Frame Time:	0.03333
1.665440243487117 -1.1686931783133718 -0.9296262053574647 -158.38230895996094 -87.60543060302734 55.32879638671875 168.62371826171875 -14.903270721435547 139.56199645996094 49.94374084472656 7.568139553070068 -63.860679626464844 128.625244140625 -7.588430404663086 -44.037681579589844 -21.21868133544922 43.52392578125 -34.65087890625 24.26393699645996 -8.485457420349121 -173.5137939453125 59.994346618652344 -60.23974609375 51.66292190551758 -60.27350616455078 10.481040954589844 -102.61844635009766 -147.80038452148438 9.607562065124512 -129.50624084472656 154.0478057861328 -49.017189025878906 -151.93096923828125 41.004486083984375 14.894275665283203 -100.26116180419922 118.14305114746094 -53.94563674926758 87.36456298828125 -25.18933868408203 27.727554321289062 121.57355499267578 105.37763977050781 43.3086051940918 6.538353443145752 161.42611694335938 23.265151977539062 119.5999984741211 -166.53187561035156 5.531674861907959 121.34132385253906 143.3162078857422 29.205856323242188 134.13792419433594 150.28208923339844 -53.11222839355469 120.19332885742188 127.8688735961914 39.68329620361328 13.230022430419922 33.14529800415039 -13.057730674743652 -132.18968200683594 40.72541427612305 -14.412191390991211 -16.594127655029297 149.62161254882812 -40.38070297241211 -20.59379005432129 -63.33340835571289 -34.969879150390625 -4.669252872467041 95.44527435302734 14.133356094360352 132.46925354003906 29.545486450195312 -15.906828880310059 63.91530227661133 178.06748962402344 9.667190551757812 -63.46541976928711 -160.44708251953125 -9.79487133026123 -138.34336853027344 70.78337097167969 -52.74704360961914 112.47087860107422 -76.27855682373047 -19.808378219604492 124.3167724609375 -38.87488555908203 12.212008476257324 30.931140899658203 -156.72825622558594 -10.017714500427246 -116.65664672851562 -117.65687561035156 30.956729888916016 -74.40523529052734 -171.1101531982422 -23.27564811706543 147.82432556152344 39.49797058105469 -26.319889068603516 -87.79264068603516 55.410762786865234 -31.922746658325195 3.8371505737304688 133.5193634033203 59.341190338134766 -95.20439147949219 -50.679134368896484 30.664297103881836 -128.7283172607422 66.74795532226562 36.3317985534668 -91.33992004394531 146.6026611328125 47.16120147705078 103.06523895263672 -114.11273193359375 -15.622520446777344 156.03309631347656 -32.399627685546875 -14.960076332092285 45.37067794799805 -73.53553771972656 13.389052391052246 -42.80082702636719 -136.4718017578125 -14.217086791992188 62.75198745727539
3.3401366739600706 -1.2050439786847085 -1.9755663701337212 -164.13592529296875 -80.23048400878906 52.46669387817383 169.60145568847656 -16.341678619384766 142.70692443847656 56.4346923828125 4.403733730316162 -59.26667022705078 120.17915344238281 -3.5509417057037354 -47.64167022705078 -12.139461517333984 54.76969909667969 -41.63390350341797 30.23177146911621 -14.989714622497559 -171.1940155029297 66.885009765625 -51.1040153503418 51.86117172241211 -61.34905242919922 7.740121364593506 -100.84868621826172 -148.1910400390625 -4.6674370765686035 -131.5195770263672 155.69024658203125 -51.459102630615234 -154.97824096679688 37.65591049194336 18.189443588256836 -98.0858383178711 120.26679992675781 -53.31658935546875 94.64913940429688 -26.1359806060791 38.881927490234375 129.6480712890625 98.79649353027344 41.50605010986328 17.896902084350586 157.20237731933594 16.502578735351562 110.17897033691406 -162.85552978515625 32.108642578125 109.55743408203125 141.22457885742188 29.311756134033203 128.9732666015625 152.15396118164062 -49.94093322753906 118.98228454589844 119.99296569824219 37.405033111572266 19.960220336914062 23.661457061767578 -13.431417465209961 -129.47079467773438 44.6293830871582 -15.514657974243164 -10.842601776123047 150.49708557128906 -41.3050537109375 -27.961904525756836 -70.32394409179688 -33.300804138183594 -10.958686828613281 98.23385620117188 6.555997848510742 138.78314208984375 30.91345977783203 -22.549835205078125 67.66017150878906 173.53436279296875 5.089580535888672 -67.66612243652344 -162.93069458007812 -14.04583740234375 -141.2290802001953 98.55498504638672 -55.278465270996094 143.91445922851562 -74.76490020751953 -14.024639129638672 119.4714584350586 -37.25252151489258 7.002696990966797 31.264219284057617 -159.27294921875 -4.632803440093994 -121.85944366455078 -124.98013305664062 30.407642364501953 -64.08412170410156 -173.7172393798828 -24.788284301757812 147.60003662109375 44.24799346923828 -36.669403076171875 -86.87777709960938 59.219669342041016 -35.555580139160156 6.0912604331970215 117.17849731445312 58.512550354003906 -85.08121490478516 -49.689178466796875 34.25718307495117 -131.19847106933594 66.12220001220703 32.03447723388672 -90.25287628173828 138.6038360595703 47.41512680053711 114.32655334472656 -109.75545501708984 7.724338531494141 124.94620513916016 -29.011077880859375 -10.202581405639648 47.02935791015625 -67.4222412109375 10.176101684570312 -47.8199348449707 -128.43592834472656 -16.06348419189453 56.051368713378906
5.0027726979060745 -1.2035913895473171 -3.0693715401180746 -166.37948608398438 -74.58021545410156 52.33656692504883 170.58087158203125 -20.27387046813965 145.74525451660156 60.16995620727539 3.017185688018799 -57.816566467285156 115.9608154296875 -0.8803930878639221 -48.95916748046875 -10.00793743133545 62.727333068847656 -43.341529846191406 36.87220001220703 -18.95952796936035 -169.6558074951172 68.24200439453125 -44.879356384277344 50.479515075683594 -61.9174690246582 6.228514671325684 -98.61602020263672 -147.7161407470703 -11.950980186462402 -133.12249755859375 157.1720733642578 -51.92137145996094 -156.8543243408203 34.72005844116211 19.031063079833984 -92.83688354492188 120.55579376220703 -55.12688446044922 97.87995910644531 -32.75183868408203 56.84860610961914 143.11865234375 93.5975112915039 40.185062408447266 26.815011978149414 155.7238311767578 13.35762882232666 103.67985534667969 -157.87591552734375 44.65456008911133 102.08551788330078 142.37203979492188 29.471094131469727 124.31599426269531 151.19857788085938 -47.89686965942383 117.41350555419922 114.53128051757812 36.584861755371094 27.206851959228516 20.503503799438477 -20.432039260864258 -126.2825927734375 49.61225509643555 -15.465786933898926 -4.4976396560668945 149.78407287597656 -41.917572021484375 -33.46407699584961 -74.40867614746094 -31.781118392944336 -13.94870376586914 99.8394775390625 2.233142375946045 143.33770751953125 30.897747039794922 -25.944717407226562 68.8759765625 171.30113220214844 2.433004856109619 -68.63861846923828 -163.60682678222656 -15.82925033569336 -143.00326538085938 135.01345825195312 38.011695861816406 -104.16059112548828 -73.13746643066406 -9.05925464630127 114.05543518066406 -36.790618896484375 3.4381022453308105 31.358318328857422 -161.0257110595703 -3.2760424613952637 -123.37324523925781 -128.37254333496094 29.594501495361328 -61.112125396728516 -174.61090087890625 -25.173316955566406 147.65127563476562 47.57011795043945 -40.304012298583984 -87.355712890625 59.67147445678711 -38.49553298950195 6.487391948699951 105.62841796875 57.00108337402344 -78.8740234375 -50.95109558105469 37.31163787841797 -131.39720153808594 66.64899444580078 29.759782791137695 -90.6935043334961 135.0636444091797 45.88819122314453 120.57996368408203 -106.52857971191406 8.398850440979004 123.4914321899414 -28.10409164428711 -6.752782821655273 48.24354553222656 -65.9384994506836 6.9790143966674805 -51.76521682739258 -121.97413635253906 -16.13124656677246 52.807464599609375
6.643863103558684 -1.1837902442566273 -4.189149038029931 -169.49642944335938 -69.98438262939453 50.329898834228516 169.80987548828125 -23.55753517150879 147.22720336914062 61.964622497558594 1.446401596069336 -57.55128479003906 113.24573516845703 0.82071453332901 -48.804317474365234 -12.778305053710938 66.17354583740234 -40.61967468261719 43.720794677734375 -21.869836807250977 -167.755126953125 68.04267120361328 -40.37818908691406 49.17486572265625 -61.98805618286133 5.46125602722168 -96.10391998291016 -146.71571350097656 -16.666200637817383 -133.86561584472656 158.90701293945312 -51.29758834838867 -157.10037231445312 32.816017150878906 17.422529220581055 -86.91606140136719 120.26913452148438 -56.816287994384766 99.31607055664062 -95.94878387451172 75.45523834228516 -147.19876098632812 86.04557037353516 38.68436813354492 38.75109100341797 155.74127197265625 11.48500919342041 99.67261505126953 -151.38458251953125 54.52104949951172 94.41259765625 145.33029174804688 28.715309143066406 120.06188201904297 149.92449951171875 -46.992122650146484 116.44749450683594 111.09922790527344 36.1035041809082 32.95664596557617 20.58989715576172 -28.478349685668945 -123.04253387451172 53.56910705566406 -14.210212707519531 0.871692419052124 147.61622619628906 -42.780696868896484 -38.22346496582031 -76.73345184326172 -30.977054595947266 -14.816097259521484 100.19700622558594 -0.8239267468452454 146.7672119140625 29.879125595092773 -28.0257625579834 68.67607879638672 170.27484130859375 1.014469861984253 -68.46459197998047 -163.6380615234375 -16.341167449951172 -143.97389221191406 132.9591827392578 40.08853530883789 -99.68075561523438 -70.92630004882812 -5.775200366973877 109.62174224853516 -36.67267608642578 1.0454038381576538 31.063709259033203 -162.9001007080078 -3.199514627456665 -123.22509002685547 -131.312255859375 29.30781364440918 -61.02591323852539 -174.33828735351562 -24.937021255493164 147.7256317138672 49.67277145385742 -41.7477912902832 -87.31718444824219 57.54096984863281 -40.697017669677734 5.591046333312988 95.48322296142578 55.62549591064453 -72.45185852050781 -53.760711669921875 39.732948303222656 -130.1753387451172 67.77923583984375 28.717082977294922 -91.91607666015625 133.29527282714844 44.64561080932617 124.42567443847656 -108.96880340576172 -0.0035175473894923925 137.2744598388672 -28.083393096923828 -4.224687576293945 48.54198455810547 -65.85087585449219 4.216663360595703 -55.12265396118164 -117.87169647216797 -16.009567260742188 50.83692932128906
